<?xml version="1.0" encoding="UTF-8"?>
<svg width="24px" height="24px" viewBox="0 0 24 24" version="1.1" xmlns="http://www.w3.org/2000/svg" xmlns:xlink="http://www.w3.org/1999/xlink">
    <!-- Generator: Sketch 55.2 (78181) - https://sketchapp.com -->
    <title>开始复制</title>
    <desc>Created with Sketch.</desc>
    <g id="页面1" stroke="none" stroke-width="1" fill="#0E7DF0" fill-rule="evenodd">
        <path d="M12,23.6 C18.4065031,23.6 23.6,18.4065031 23.6,12 C23.6,5.5934969 18.4065031,0.4 12,0.4 C5.5934969,0.4 0.4,5.5934969 0.4,12 C0.4,18.4065031 5.5934969,23.6 12,23.6 Z M12,22.4 C6.2562386,22.4 1.6,17.7437614 1.6,12 C1.6,6.2562386 6.2562386,1.6 12,1.6 C17.7437614,1.6 22.4,6.2562386 22.4,12 C22.4,17.7437614 17.7437614,22.4 12,22.4 Z" id="椭圆形"></path>
        <path d="M9.4,6 C9.4,5.48738807 10.0012708,5.21084262 10.3904748,5.54444604 L17.3904748,11.544446 C17.6698417,11.7839034 17.6698417,12.2160966 17.3904748,12.455554 L10.3904748,18.455554 C10.0012708,18.7891574 9.4,18.5126119 9.4,18 L9.4,6 Z M10.6,7.30453238 L10.6,16.6954676 L16.0780456,12 L10.6,7.30453238 Z" id="路径"></path>
    </g>
</svg>