<?xml version="1.0" encoding="UTF-8"?>
<svg width="24px" height="24px" viewBox="0 0 24 24" version="1.1" xmlns="http://www.w3.org/2000/svg" xmlns:xlink="http://www.w3.org/1999/xlink">
    <!-- Generator: Sketch 55.2 (78181) - https://sketchapp.com -->
    <title>结束</title>
    <desc>Created with Sketch.</desc>
    <g id="页面1" stroke="none" stroke-width="1" fill="#0E7DF0" fill-rule="evenodd">
        <path d="M12,23.6 C18.4065031,23.6 23.6,18.4065031 23.6,12 C23.6,5.5934969 18.4065031,0.4 12,0.4 C5.5934969,0.4 0.4,5.5934969 0.4,12 C0.4,18.4065031 5.5934969,23.6 12,23.6 Z M12,22.4 C6.2562386,22.4 1.6,17.7437614 1.6,12 C1.6,6.2562386 6.2562386,1.6 12,1.6 C17.7437614,1.6 22.4,6.2562386 22.4,12 C22.4,17.7437614 17.7437614,22.4 12,22.4 Z" id="椭圆形"></path>
        <path d="M12.8485281,12 L16.4242641,15.5757359 C16.6585786,15.8100505 16.6585786,16.1899495 16.4242641,16.4242641 C16.1899495,16.6585786 15.8100505,16.6585786 15.5757359,16.4242641 L12,12.8485281 L8.42426407,16.4242641 C8.18994949,16.6585786 7.81005051,16.6585786 7.57573593,16.4242641 C7.34142136,16.1899495 7.34142136,15.8100505 7.57573593,15.5757359 L11.1514719,12 L7.57573593,8.42426407 C7.34142136,8.18994949 7.34142136,7.81005051 7.57573593,7.57573593 C7.81005051,7.34142136 8.18994949,7.34142136 8.42426407,7.57573593 L12,11.1514719 L15.5757359,7.57573593 C15.8100505,7.34142136 16.1899495,7.34142136 16.4242641,7.57573593 C16.6585786,7.81005051 16.6585786,8.18994949 16.4242641,8.42426407 L12.8485281,12 Z" id="形状结合"></path>
    </g>
</svg>